<svg fill="none" xmlns="http://www.w3.org/2000/svg">
<path d="M25.0009 16.79C24.8436 18.4922 24.2047 20.1144 23.1591 21.4668C22.1135 22.8192 20.7044 23.8458 19.0966 24.4265C17.4888 25.0073 15.7489 25.1181 14.0804 24.7461C12.4119 24.3741 10.8839 23.5345 9.6751 22.3258C8.46633 21.117 7.62682 19.589 7.25479 17.9205C6.88275 16.252 6.99359 14.5121 7.57434 12.9043C8.15508 11.2965 9.18171 9.88737 10.5341 8.84175C11.8865 7.79614 13.5087 7.15731 15.2109 7C14.2143 8.34827 13.7347 10.0094 13.8594 11.6814C13.9841 13.3534 14.7047 14.9251 15.8903 16.1106C17.0758 17.2961 18.6475 18.0168 20.3195 18.1415C21.9914 18.2662 23.6526 17.7866 25.0009 16.79Z" stroke="#F2F2F2" stroke-width="1.5" stroke-linecap="round" stroke-linejoin="round"/>
</svg>
